<svg xmlns="http://www.w3.org/2000/svg" width="71" height="92" viewBox="0 0 71 92">
    <path id="Union_11" data-name="Union 11"
        d="M1,81.5a9.145,9.145,0,0,1,3.84-7.345V26.178a17.927,17.927,0,0,0,20.183-.594V44.663c.218-.863,2.157-2.875,15.387-2.93,5.324-.022,9.461-.709,12.3-2.041a6.926,6.926,0,0,0,3.5-3.01,1.456,1.456,0,0,0,.14-.455,9.026,9.026,0,0,0,6.87.184,8.932,8.932,0,0,1,.809,1.716,6,6,0,0,1-.176,4.648c-.938,1.884-3.027,3.383-6.208,4.456-3.958,1.335-9.635,2.012-16.87,2.012h-.532c-9.664,0-16.468,2.417-20.222,7.183-4.461,5.665-3.5,13.246-2.537,17.262A9.286,9.286,0,0,1,22,81.5C22,86.738,17.29,91,11.5,91S1,86.738,1,81.5ZM50,26A10,10,0,1,1,60,36,10,10,0,0,1,50,26ZM0,14.5A14.5,14.5,0,1,1,14.5,29,14.5,14.5,0,0,1,0,14.5Z"
        transform="translate(0.5 0.5)" fill="none" stroke="#707070" stroke-width="1" />
</svg>