<svg xmlns="http://www.w3.org/2000/svg" width="35.184" height="34" viewBox="0 0 35.184 34">
    <path id="Subtraction_1" data-name="Subtraction 1"
        d="M11.5,22a11.694,11.694,0,0,1-8.132-3.222,10.664,10.664,0,0,1,0-15.556A11.694,11.694,0,0,1,11.5,0a11.694,11.694,0,0,1,8.132,3.222,10.664,10.664,0,0,1,0,15.556A11.694,11.694,0,0,1,11.5,22Zm0-18a7,7,0,1,0,7,7A7.008,7.008,0,0,0,11.5,4Z"
        transform="translate(6.092 6)" fill="#707070" />
    <path id="Ellipse_14_-_Outline" data-name="Ellipse 14 - Outline"
        d="M11.5,1A10.271,10.271,0,0,0,1,11,10.271,10.271,0,0,0,11.5,21,10.271,10.271,0,0,0,22,11,10.271,10.271,0,0,0,11.5,1m0-1A11.258,11.258,0,0,1,23,11,11.258,11.258,0,0,1,11.5,22,11.258,11.258,0,0,1,0,11,11.258,11.258,0,0,1,11.5,0Z"
        transform="translate(6.092 6)" fill="#707070" />
    <path id="Union_1" data-name="Union 1" d="M5,8H0L2.919,0H8.081L11,8Z" transform="translate(12.092)"
        fill="#707070" />
    <path id="Union_2" data-name="Union 2" d="M5,0H0L2.919,8H8.081L11,0Z" transform="translate(12.092 26)"
        fill="#707070" />
    <path id="Union_3" data-name="Union 3" d="M5,8H0L2.919,0H8.081L11,8Z" transform="translate(29.565 3.737) rotate(60)"
        fill="#707070" />
    <path id="Union_4" data-name="Union 4" d="M5,0H0L2.919,8H8.081L11,0Z" transform="translate(7.048 16.737) rotate(60)"
        fill="#707070" />
    <path id="Union_5" data-name="Union 5" d="M5,0H0L2.919,8H8.081L11,0Z"
        transform="translate(12.228 7.919) rotate(118)" fill="#707070" />
    <path id="Union_6" data-name="Union 6" d="M5,8H0L2.919,0H8.081L11,8Z"
        transform="translate(35.184 20.125) rotate(118)" fill="#707070" />
</svg>
